<svg width="48" height="48" viewBox="0 0 48 48" fill="#ffffff" xmlns="http://www.w3.org/2000/svg">
<path d="M29.4712 24C29.4712 27.1559 26.9129 29.7143 23.757 29.7143C20.601 29.7143 18.0427 27.1559 18.0427 24C18.0427 20.8441 20.601 18.2857 23.757 18.2857C26.9129 18.2857 29.4712 20.8441 29.4712 24Z" fill="#FFFFFF"/>
<path fill-rule="evenodd" clip-rule="evenodd" d="M23.757 48C35.8477 48 45.8503 39.0593 47.5139 27.4286H33.4574C32.0454 31.4235 28.2354 34.2857 23.757 34.2857C19.2785 34.2857 15.4685 31.4235 14.0565 27.4286H0C1.66364 39.0593 11.6662 48 23.757 48ZM14.0565 20.5714H0C1.66364 8.94071 11.6662 0 23.757 0C35.8477 0 45.8503 8.94071 47.5139 20.5714H33.4574C32.0454 16.5765 28.2354 13.7143 23.757 13.7143C19.2785 13.7143 15.4685 16.5765 14.0565 20.5714ZM29.4712 24C29.4712 27.1559 26.9129 29.7143 23.757 29.7143C20.601 29.7143 18.0427 27.1559 18.0427 24C18.0427 20.8441 20.601 18.2857 23.757 18.2857C26.9129 18.2857 29.4712 20.8441 29.4712 24Z" fill="#FFFFFF"/>
</svg>
